<svg width="34" height="34" viewBox="0 0 34 34" fill="none" xmlns="http://www.w3.org/2000/svg">
<path d="M16.9997 33.6663C14.6941 33.6663 12.5275 33.2288 10.4997 32.3538C8.4719 31.4788 6.70801 30.2913 5.20801 28.7913C3.70801 27.2913 2.52051 25.5275 1.64551 23.4997C0.770508 21.4719 0.333008 19.3052 0.333008 16.9997C0.333008 14.6941 0.770508 12.5275 1.64551 10.4997C2.52051 8.4719 3.70801 6.70801 5.20801 5.20801C6.70801 3.70801 8.4719 2.52051 10.4997 1.64551C12.5275 0.770508 14.6941 0.333008 16.9997 0.333008C19.3052 0.333008 21.4719 0.770508 23.4997 1.64551C25.5275 2.52051 27.2913 3.70801 28.7913 5.20801C30.2913 6.70801 31.4788 8.4719 32.3538 10.4997C33.2288 12.5275 33.6663 14.6941 33.6663 16.9997V19.4163C33.6663 21.0552 33.1038 22.4511 31.9788 23.6038C30.8538 24.7566 29.4719 25.333 27.833 25.333C26.8608 25.333 25.9441 25.1247 25.083 24.708C24.2219 24.2913 23.4997 23.6941 22.9163 22.9163C22.1108 23.7219 21.2011 24.3261 20.1872 24.7288C19.1733 25.1316 18.1108 25.333 16.9997 25.333C14.6941 25.333 12.7288 24.5205 11.1038 22.8955C9.47884 21.2705 8.66634 19.3052 8.66634 16.9997C8.66634 14.6941 9.47884 12.7288 11.1038 11.1038C12.7288 9.47884 14.6941 8.66634 16.9997 8.66634C19.3052 8.66634 21.2705 9.47884 22.8955 11.1038C24.5205 12.7288 25.333 14.6941 25.333 16.9997V19.4163C25.333 20.1386 25.5691 20.7497 26.0413 21.2497C26.5136 21.7497 27.1108 21.9997 27.833 21.9997C28.5552 21.9997 29.1525 21.7497 29.6247 21.2497C30.0969 20.7497 30.333 20.1386 30.333 19.4163V16.9997C30.333 13.2775 29.0413 10.1247 26.458 7.54134C23.8747 4.95801 20.7219 3.66634 16.9997 3.66634C13.2775 3.66634 10.1247 4.95801 7.54134 7.54134C4.95801 10.1247 3.66634 13.2775 3.66634 16.9997C3.66634 20.7219 4.95801 23.8747 7.54134 26.458C10.1247 29.0413 13.2775 30.333 16.9997 30.333H25.333V33.6663H16.9997ZM16.9997 21.9997C18.3886 21.9997 19.5691 21.5136 20.5413 20.5413C21.5136 19.5691 21.9997 18.3886 21.9997 16.9997C21.9997 15.6108 21.5136 14.4302 20.5413 13.458C19.5691 12.4858 18.3886 11.9997 16.9997 11.9997C15.6108 11.9997 14.4302 12.4858 13.458 13.458C12.4858 14.4302 11.9997 15.6108 11.9997 16.9997C11.9997 18.3886 12.4858 19.5691 13.458 20.5413C14.4302 21.5136 15.6108 21.9997 16.9997 21.9997Z" fill="black"/>
</svg>
