<svg width="124" height="124" viewBox="0 0 124 124" fill="none" xmlns="http://www.w3.org/2000/svg">
<g filter="url(#filter0_dddi_888_10552)">
<rect x="12" y="8" width="100" height="100" rx="50" fill="url(#paint0_linear_888_10552)" shape-rendering="crispEdges"/>
<g clip-path="url(#clip0_888_10552)">
<path d="M52.2197 52.33V46.72C52.2197 42.74 55.4597 39.5 59.4397 39.5H59.6097C63.5897 39.5 66.8297 42.74 66.8297 46.72V52.09" stroke="#E6B09B" stroke-width="3" stroke-linecap="round" stroke-linejoin="round"/>
<path d="M73.2005 57.74C70.5705 57.08 62.3105 56.11 62.3105 55.83V46.72C62.3105 45.23 61.1005 44.02 59.6105 44.02H59.4405C57.9505 44.02 56.7405 45.23 56.7405 46.72V63.3L53.2805 59.47C52.2805 58.36 50.5705 58.27 49.4605 59.28L49.3905 59.34C48.2805 60.34 48.2005 62.05 49.2005 63.16C52.2605 66.55 55.1905 70.16 58.5205 73.29C61.3105 75.91 64.9505 77.08 68.7505 76.56C74.7705 75.74 75.6305 69.09 75.8205 64.22C75.9105 61.95 75.9805 58.44 73.2005 57.74Z" stroke="#E5D5CF" stroke-width="3" stroke-linecap="round" stroke-linejoin="round"/>
</g>
</g>
<defs>
<filter id="filter0_dddi_888_10552" x="0" y="0" width="124" height="124" filterUnits="userSpaceOnUse" color-interpolation-filters="sRGB">
<feFlood flood-opacity="0" result="BackgroundImageFix"/>
<feColorMatrix in="SourceAlpha" type="matrix" values="0 0 0 0 0 0 0 0 0 0 0 0 0 0 0 0 0 0 127 0" result="hardAlpha"/>
<feOffset dy="4"/>
<feGaussianBlur stdDeviation="6"/>
<feComposite in2="hardAlpha" operator="out"/>
<feColorMatrix type="matrix" values="0 0 0 0 0.857536 0 0 0 0 0.791127 0 0 0 0 0.791127 0 0 0 0.2 0"/>
<feBlend mode="normal" in2="BackgroundImageFix" result="effect1_dropShadow_888_10552"/>
<feColorMatrix in="SourceAlpha" type="matrix" values="0 0 0 0 0 0 0 0 0 0 0 0 0 0 0 0 0 0 127 0" result="hardAlpha"/>
<feOffset/>
<feGaussianBlur stdDeviation="1"/>
<feComposite in2="hardAlpha" operator="out"/>
<feColorMatrix type="matrix" values="0 0 0 0 0.858824 0 0 0 0 0.792157 0 0 0 0 0.792157 0 0 0 0.25 0"/>
<feBlend mode="normal" in2="effect1_dropShadow_888_10552" result="effect2_dropShadow_888_10552"/>
<feColorMatrix in="SourceAlpha" type="matrix" values="0 0 0 0 0 0 0 0 0 0 0 0 0 0 0 0 0 0 127 0" result="hardAlpha"/>
<feOffset dx="-4" dy="-4"/>
<feGaussianBlur stdDeviation="2"/>
<feComposite in2="hardAlpha" operator="out"/>
<feColorMatrix type="matrix" values="0 0 0 0 1 0 0 0 0 1 0 0 0 0 1 0 0 0 0.6 0"/>
<feBlend mode="normal" in2="effect2_dropShadow_888_10552" result="effect3_dropShadow_888_10552"/>
<feBlend mode="normal" in="SourceGraphic" in2="effect3_dropShadow_888_10552" result="shape"/>
<feColorMatrix in="SourceAlpha" type="matrix" values="0 0 0 0 0 0 0 0 0 0 0 0 0 0 0 0 0 0 127 0" result="hardAlpha"/>
<feOffset dx="2" dy="2"/>
<feGaussianBlur stdDeviation="6"/>
<feComposite in2="hardAlpha" operator="arithmetic" k2="-1" k3="1"/>
<feColorMatrix type="matrix" values="0 0 0 0 0.961165 0 0 0 0 0.897932 0 0 0 0 0.897932 0 0 0 0.25 0"/>
<feBlend mode="normal" in2="shape" result="effect4_innerShadow_888_10552"/>
</filter>
<linearGradient id="paint0_linear_888_10552" x1="28" y1="16" x2="94" y2="100.5" gradientUnits="userSpaceOnUse">
<stop stop-color="#FAFAFA"/>
<stop offset="1" stop-color="#FCF9F5"/>
</linearGradient>
<clipPath id="clip0_888_10552">
<rect width="30.35" height="40.18" fill="white" transform="translate(47 38)"/>
</clipPath>
</defs>
</svg>
