<svg width="110" height="105" viewBox="0 0 110 105" fill="none" xmlns="http://www.w3.org/2000/svg">
<rect x="5" y="5" width="100" height="100" rx="50" fill="#FD5B1D"/>
<g clip-path="url(#clip0_889_10459)">
<circle cx="55" cy="55" r="55" fill="#FD5B1D" fill-opacity="0.2"/>
</g>
<path d="M38.071 51.234C37.381 51.234 36.718 51.126 36.082 50.91C35.446 50.694 34.891 50.385 34.417 49.983C33.943 49.575 33.604 49.092 33.4 48.534L35.155 47.877C35.257 48.165 35.452 48.423 35.74 48.651C36.034 48.873 36.382 49.047 36.784 49.173C37.192 49.299 37.621 49.362 38.071 49.362C38.551 49.362 39.001 49.284 39.421 49.128C39.847 48.972 40.189 48.756 40.447 48.48C40.711 48.204 40.843 47.88 40.843 47.508C40.843 47.124 40.705 46.809 40.429 46.563C40.159 46.317 39.811 46.122 39.385 45.978C38.965 45.834 38.527 45.726 38.071 45.654C37.189 45.51 36.397 45.3 35.695 45.024C34.999 44.748 34.447 44.361 34.039 43.863C33.637 43.365 33.436 42.717 33.436 41.919C33.436 41.169 33.649 40.515 34.075 39.957C34.507 39.399 35.074 38.967 35.776 38.661C36.484 38.349 37.249 38.193 38.071 38.193C38.749 38.193 39.403 38.301 40.033 38.517C40.669 38.727 41.227 39.036 41.707 39.444C42.193 39.846 42.541 40.335 42.751 40.911L40.978 41.55C40.876 41.256 40.681 41.001 40.393 40.785C40.105 40.563 39.757 40.389 39.349 40.263C38.947 40.137 38.521 40.074 38.071 40.074C37.591 40.068 37.141 40.146 36.721 40.308C36.307 40.464 35.968 40.68 35.704 40.956C35.44 41.232 35.308 41.553 35.308 41.919C35.308 42.369 35.431 42.711 35.677 42.945C35.923 43.179 36.253 43.353 36.667 43.467C37.087 43.575 37.555 43.674 38.071 43.764C38.899 43.896 39.664 44.115 40.366 44.421C41.074 44.727 41.641 45.135 42.067 45.645C42.499 46.149 42.715 46.77 42.715 47.508C42.715 48.252 42.499 48.906 42.067 49.47C41.641 50.028 41.074 50.463 40.366 50.775C39.664 51.081 38.899 51.234 38.071 51.234ZM49.3183 43.872H47.4283L47.4193 51H45.5473L45.5563 43.872H44.1253V42H45.5563L45.5473 39.174H47.4193L47.4283 42H49.3183V43.872ZM57.7207 42H59.5927V51H57.7117L57.6397 49.695C57.3757 50.157 57.0187 50.529 56.5687 50.811C56.1187 51.093 55.5877 51.234 54.9757 51.234C54.3157 51.234 53.6947 51.111 53.1127 50.865C52.5307 50.613 52.0177 50.265 51.5737 49.821C51.1357 49.377 50.7937 48.867 50.5477 48.291C50.3017 47.709 50.1787 47.085 50.1787 46.419C50.1787 45.777 50.2987 45.174 50.5387 44.61C50.7787 44.04 51.1117 43.542 51.5377 43.116C51.9637 42.69 52.4557 42.357 53.0137 42.117C53.5777 41.871 54.1807 41.748 54.8227 41.748C55.4767 41.748 56.0527 41.898 56.5507 42.198C57.0547 42.492 57.4717 42.87 57.8017 43.332L57.7207 42ZM54.9307 49.425C55.4587 49.425 55.9207 49.296 56.3167 49.038C56.7127 48.774 57.0187 48.42 57.2347 47.976C57.4567 47.532 57.5677 47.04 57.5677 46.5C57.5677 45.954 57.4567 45.459 57.2347 45.015C57.0127 44.571 56.7037 44.22 56.3077 43.962C55.9177 43.698 55.4587 43.566 54.9307 43.566C54.4087 43.566 53.9317 43.698 53.4997 43.962C53.0677 44.226 52.7257 44.58 52.4737 45.024C52.2217 45.468 52.0957 45.96 52.0957 46.5C52.0957 47.046 52.2247 47.541 52.4827 47.985C52.7467 48.423 53.0917 48.774 53.5177 49.038C53.9497 49.296 54.4207 49.425 54.9307 49.425ZM61.3886 51V42H63.2606V42.954C63.5726 42.582 63.9566 42.288 64.4126 42.072C64.8686 41.856 65.3606 41.748 65.8886 41.748C66.2246 41.748 66.5576 41.793 66.8876 41.883L66.1406 43.773C65.9066 43.683 65.6726 43.638 65.4386 43.638C65.0426 43.638 64.6796 43.737 64.3496 43.935C64.0196 44.127 63.7556 44.388 63.5576 44.718C63.3596 45.048 63.2606 45.414 63.2606 45.816V51L61.3886 51ZM72.9082 43.872H71.0182L71.0092 51H69.1372L69.1462 43.872H67.7152V42H69.1462L69.1372 39.174H71.0092L71.0182 42H72.9082V43.872ZM74.3485 47.22V38.4H75.9415V47.22H74.3485ZM75.1495 51.234C74.8735 51.234 74.6395 51.138 74.4475 50.946C74.2555 50.754 74.1595 50.517 74.1595 50.235C74.1595 49.965 74.2555 49.737 74.4475 49.551C74.6395 49.359 74.8735 49.263 75.1495 49.263C75.4195 49.263 75.6475 49.359 75.8335 49.551C76.0255 49.737 76.1215 49.965 76.1215 50.235C76.1215 50.517 76.0255 50.754 75.8335 50.946C75.6475 51.138 75.4195 51.234 75.1495 51.234Z" fill="white"/>
<path d="M61 64L55.5883 69.4143L55.003 70L54.4111 69.4143L49 64" stroke="white" stroke-width="2" stroke-miterlimit="10" stroke-linecap="round" stroke-linejoin="round"/>
<defs>
<clipPath id="clip0_889_10459">
<rect width="110" height="0.2" fill="white"/>
</clipPath>
</defs>
</svg>
