<svg width="40" height="44" viewBox="0 0 40 44" fill="none" xmlns="http://www.w3.org/2000/svg">
<path d="M19 36.1939C19 36.1391 18.9884 36.0848 18.966 36.0348C18.9036 35.8957 18.7647 35.8061 18.6123 35.8033C8.29712 35.611 0 27.6695 0 17.9034C0 8.01547 8.50609 0 19 0C29.4939 0 38 8.01547 38 17.9034C37.9903 20.4797 37.404 23.0223 36.2828 25.3509C35.1615 27.6795 33.5328 29.737 31.5121 31.3774L20.7102 42.2747C20.0815 42.9089 19 42.4637 19 41.5707V36.1939Z" fill="#FD5B1D" style="mix-blend-mode:overlay"/>
<path d="M24.9311 22.1501C25.4444 22.1501 25.9044 22.2634 26.3111 22.4901C26.7178 22.7167 27.0344 23.0334 27.2611 23.4401C27.4944 23.8467 27.6111 24.3167 27.6111 24.8501C27.6111 25.3834 27.4944 25.8567 27.2611 26.2701C27.0344 26.6767 26.7178 26.9934 26.3111 27.2201C25.9044 27.4467 25.4444 27.5601 24.9311 27.5601C24.5378 27.5601 24.1778 27.4834 23.8511 27.3301C23.5244 27.1767 23.2544 26.9534 23.0411 26.6601V27.5001H22.1211V20.0801H23.0811V23.0001C23.2944 22.7201 23.5611 22.5101 23.8811 22.3701C24.2011 22.2234 24.5511 22.1501 24.9311 22.1501ZM24.8511 26.7201C25.1911 26.7201 25.4944 26.6434 25.7611 26.4901C26.0344 26.3301 26.2478 26.1101 26.4011 25.8301C26.5611 25.5434 26.6411 25.2167 26.6411 24.8501C26.6411 24.4834 26.5611 24.1601 26.4011 23.8801C26.2478 23.5934 26.0344 23.3734 25.7611 23.2201C25.4944 23.0667 25.1911 22.9901 24.8511 22.9901C24.5178 22.9901 24.2144 23.0667 23.9411 23.2201C23.6678 23.3734 23.4544 23.5934 23.3011 23.8801C23.1478 24.1601 23.0711 24.4834 23.0711 24.8501C23.0711 25.2167 23.1478 25.5434 23.3011 25.8301C23.4544 26.1101 23.6678 26.3301 23.9411 26.4901C24.2144 26.6434 24.5178 26.7201 24.8511 26.7201Z" fill="white"/>
<path d="M18.3878 26.7201C19.0211 26.7201 19.5311 26.5068 19.9178 26.0801L20.4378 26.7001C20.2045 26.9801 19.9078 27.1935 19.5478 27.3401C19.1945 27.4868 18.7978 27.5601 18.3578 27.5601C17.7978 27.5601 17.3011 27.4468 16.8678 27.2201C16.4345 26.9868 16.0978 26.6635 15.8578 26.2501C15.6245 25.8368 15.5078 25.3701 15.5078 24.8501C15.5078 24.3368 15.6211 23.8735 15.8478 23.4601C16.0811 23.0468 16.3978 22.7268 16.7978 22.5001C17.2045 22.2668 17.6611 22.1501 18.1678 22.1501C18.6478 22.1501 19.0845 22.2601 19.4778 22.4801C19.8711 22.6935 20.1845 22.9968 20.4178 23.3901C20.6511 23.7835 20.7711 24.2368 20.7778 24.7501L16.5678 25.5701C16.7011 25.9368 16.9245 26.2201 17.2378 26.4201C17.5578 26.6201 17.9411 26.7201 18.3878 26.7201ZM18.1678 22.9601C17.8345 22.9601 17.5345 23.0368 17.2678 23.1901C17.0078 23.3435 16.8045 23.5601 16.6578 23.8401C16.5111 24.1135 16.4378 24.4335 16.4378 24.8001V24.9001L19.8278 24.2601C19.7411 23.8735 19.5478 23.5601 19.2478 23.3201C18.9478 23.0801 18.5878 22.9601 18.1678 22.9601Z" fill="white"/>
<path d="M14.2247 22.2002V25.1302C14.2247 25.9102 14.0314 26.5102 13.6447 26.9302C13.2581 27.3502 12.6981 27.5602 11.9647 27.5602C11.0981 27.5602 10.4981 27.2435 10.1647 26.6102C9.99139 26.9302 9.75473 27.1702 9.45473 27.3302C9.16139 27.4835 8.79473 27.5602 8.35473 27.5602C7.61473 27.5602 7.05139 27.3502 6.66473 26.9302C6.28473 26.5102 6.09473 25.9102 6.09473 25.1302V22.2002H7.05473V25.0402C7.05473 25.6069 7.15806 26.0269 7.36473 26.3002C7.57139 26.5669 7.90139 26.7002 8.35473 26.7002C8.80806 26.7002 9.14139 26.5635 9.35473 26.2902C9.57473 26.0169 9.68473 25.6002 9.68473 25.0402V22.2002H10.6447V25.0402C10.6447 25.6002 10.7514 26.0169 10.9647 26.2902C11.1847 26.5635 11.5214 26.7002 11.9747 26.7002C12.4214 26.7002 12.7481 26.5669 12.9547 26.3002C13.1614 26.0269 13.2647 25.6069 13.2647 25.0402V22.2002H14.2247Z" fill="white"/>
<path d="M35.5623 15.7842C35.973 15.7842 36.3348 15.7255 36.6476 15.6082C36.9703 15.4811 37.2685 15.2855 37.5423 15.0215L38.7596 16.3415C38.0165 17.1922 36.9312 17.6175 35.5036 17.6175C34.6139 17.6175 33.8268 17.4464 33.1423 17.1042C32.4579 16.7522 31.9299 16.2682 31.5583 15.6522C31.1868 15.0362 31.001 14.3371 31.001 13.5549C31.001 12.7824 31.1819 12.0882 31.5436 11.4722C31.9152 10.8464 32.4188 10.3624 33.0543 10.0202C33.6996 9.66819 34.4232 9.49219 35.225 9.49219C35.9779 9.49219 36.6623 9.65352 37.2783 9.97619C37.8943 10.2891 38.3832 10.7486 38.745 11.3549C39.1165 11.9513 39.3023 12.6602 39.3023 13.4815L33.465 14.6109C33.6312 15.002 33.8903 15.2953 34.2423 15.4909C34.6041 15.6864 35.0441 15.7842 35.5623 15.7842ZM35.225 11.2229C34.6481 11.2229 34.1788 11.4086 33.817 11.7802C33.4552 12.1517 33.2645 12.6651 33.245 13.3202L37.0876 12.5722C36.9801 12.1615 36.7601 11.834 36.4276 11.5895C36.0952 11.3451 35.6943 11.2229 35.225 11.2229Z" fill="white"/>
<path d="M25.637 14.4054L24.537 15.4908V17.5001H22.249V6.61743H24.537V12.7774L27.881 9.60943H30.609L27.3237 12.9534L30.9024 17.5001H28.1304L25.637 14.4054Z" fill="white"/>
<path d="M17.8373 9.60952H20.1253V17.5002H17.8373V9.60952ZM18.9813 8.50952C18.5608 8.50952 18.2186 8.3873 17.9546 8.14285C17.6906 7.89841 17.5586 7.5953 17.5586 7.23352C17.5586 6.87174 17.6906 6.56863 17.9546 6.32419C18.2186 6.07974 18.5608 5.95752 18.9813 5.95752C19.4017 5.95752 19.7439 6.07485 20.0079 6.30952C20.2719 6.54419 20.4039 6.83752 20.4039 7.18952C20.4039 7.57085 20.2719 7.88863 20.0079 8.14285C19.7439 8.3873 19.4017 8.50952 18.9813 8.50952Z" fill="white"/>
<path d="M9.14746 7.2334H11.5235V15.5641H16.6715V17.5001H9.14746V7.2334Z" fill="white"/>
</svg>
