<svg width="40" height="44" viewBox="0 0 40 44" fill="none" xmlns="http://www.w3.org/2000/svg">
<path d="M19 36.1939C19 36.1391 18.9884 36.0848 18.966 36.0348C18.9036 35.8957 18.7647 35.8061 18.6123 35.8033C8.29712 35.611 0 27.6695 0 17.9034C0 8.01547 8.50609 0 19 0C29.4939 0 38 8.01547 38 17.9034C37.9903 20.4797 37.404 23.0223 36.2828 25.3509C35.1615 27.6795 33.5328 29.737 31.5121 31.3774L20.7102 42.2747C20.0815 42.9089 19 42.4637 19 41.5707V36.1939Z" fill="#FD5B1D" style="mix-blend-mode:overlay"/>
<path d="M24.9311 22.1511C25.4444 22.1511 25.9044 22.2644 26.3111 22.4911C26.7178 22.7177 27.0344 23.0344 27.2611 23.4411C27.4944 23.8477 27.6111 24.3177 27.6111 24.8511C27.6111 25.3844 27.4944 25.8577 27.2611 26.2711C27.0344 26.6777 26.7178 26.9944 26.3111 27.2211C25.9044 27.4477 25.4444 27.5611 24.9311 27.5611C24.5378 27.5611 24.1778 27.4844 23.8511 27.3311C23.5244 27.1777 23.2544 26.9544 23.0411 26.6611V27.5011H22.1211V20.0811H23.0811V23.0011C23.2944 22.7211 23.5611 22.5111 23.8811 22.3711C24.2011 22.2244 24.5511 22.1511 24.9311 22.1511ZM24.8511 26.7211C25.1911 26.7211 25.4944 26.6444 25.7611 26.4911C26.0344 26.3311 26.2478 26.1111 26.4011 25.8311C26.5611 25.5444 26.6411 25.2177 26.6411 24.8511C26.6411 24.4844 26.5611 24.1611 26.4011 23.8811C26.2478 23.5944 26.0344 23.3744 25.7611 23.2211C25.4944 23.0677 25.1911 22.9911 24.8511 22.9911C24.5178 22.9911 24.2144 23.0677 23.9411 23.2211C23.6678 23.3744 23.4544 23.5944 23.3011 23.8811C23.1478 24.1611 23.0711 24.4844 23.0711 24.8511C23.0711 25.2177 23.1478 25.5444 23.3011 25.8311C23.4544 26.1111 23.6678 26.3311 23.9411 26.4911C24.2144 26.6444 24.5178 26.7211 24.8511 26.7211Z" fill="white"/>
<path d="M18.3878 26.7204C19.0211 26.7204 19.5311 26.5071 19.9178 26.0804L20.4378 26.7004C20.2045 26.9804 19.9078 27.1937 19.5478 27.3404C19.1945 27.4871 18.7978 27.5604 18.3578 27.5604C17.7978 27.5604 17.3011 27.4471 16.8678 27.2204C16.4345 26.9871 16.0978 26.6637 15.8578 26.2504C15.6245 25.8371 15.5078 25.3704 15.5078 24.8504C15.5078 24.3371 15.6211 23.8737 15.8478 23.4604C16.0811 23.0471 16.3978 22.7271 16.7978 22.5004C17.2045 22.2671 17.6611 22.1504 18.1678 22.1504C18.6478 22.1504 19.0845 22.2604 19.4778 22.4804C19.8711 22.6937 20.1845 22.9971 20.4178 23.3904C20.6511 23.7837 20.7711 24.2371 20.7778 24.7504L16.5678 25.5704C16.7011 25.9371 16.9245 26.2204 17.2378 26.4204C17.5578 26.6204 17.9411 26.7204 18.3878 26.7204ZM18.1678 22.9604C17.8345 22.9604 17.5345 23.0371 17.2678 23.1904C17.0078 23.3437 16.8045 23.5604 16.6578 23.8404C16.5111 24.1137 16.4378 24.4337 16.4378 24.8004V24.9004L19.8278 24.2604C19.7411 23.8737 19.5478 23.5604 19.2478 23.3204C18.9478 23.0804 18.5878 22.9604 18.1678 22.9604Z" fill="white"/>
<path d="M14.2247 22.2002V25.1302C14.2247 25.9102 14.0314 26.5102 13.6447 26.9302C13.2581 27.3502 12.6981 27.5602 11.9647 27.5602C11.0981 27.5602 10.4981 27.2435 10.1647 26.6102C9.99139 26.9302 9.75473 27.1702 9.45473 27.3302C9.16139 27.4835 8.79473 27.5602 8.35473 27.5602C7.61473 27.5602 7.05139 27.3502 6.66473 26.9302C6.28473 26.5102 6.09473 25.9102 6.09473 25.1302V22.2002H7.05473V25.0402C7.05473 25.6069 7.15806 26.0269 7.36473 26.3002C7.57139 26.5669 7.90139 26.7002 8.35473 26.7002C8.80806 26.7002 9.14139 26.5635 9.35473 26.2902C9.57473 26.0169 9.68473 25.6002 9.68473 25.0402V22.2002H10.6447V25.0402C10.6447 25.6002 10.7514 26.0169 10.9647 26.2902C11.1847 26.5635 11.5214 26.7002 11.9747 26.7002C12.4214 26.7002 12.7481 26.5669 12.9547 26.3002C13.1614 26.0269 13.2647 25.6069 13.2647 25.0402V22.2002H14.2247Z" fill="white"/>
<path d="M35.5623 15.7842C35.973 15.7842 36.3348 15.7255 36.6476 15.6082C36.9703 15.4811 37.2685 15.2855 37.5423 15.0215L38.7596 16.3415C38.0165 17.1922 36.9312 17.6175 35.5036 17.6175C34.6139 17.6175 33.8268 17.4464 33.1423 17.1042C32.4579 16.7522 31.9299 16.2682 31.5583 15.6522C31.1868 15.0362 31.001 14.3371 31.001 13.5549C31.001 12.7824 31.1819 12.0882 31.5436 11.4722C31.9152 10.8464 32.4188 10.3624 33.0543 10.0202C33.6996 9.66819 34.4232 9.49219 35.225 9.49219C35.9779 9.49219 36.6623 9.65352 37.2783 9.97619C37.8943 10.2891 38.3832 10.7486 38.745 11.3549C39.1165 11.9513 39.3023 12.6602 39.3023 13.4815L33.465 14.6109C33.6312 15.002 33.8903 15.2953 34.2423 15.4909C34.6041 15.6864 35.0441 15.7842 35.5623 15.7842ZM35.225 11.2229C34.6481 11.2229 34.1788 11.4086 33.817 11.7802C33.4552 12.1517 33.2645 12.6651 33.245 13.3202L37.0876 12.5722C36.9801 12.1615 36.7601 11.834 36.4276 11.5895C36.0952 11.3451 35.6943 11.2229 35.225 11.2229Z" fill="white"/>
<path d="M25.637 14.4062L24.537 15.4915V17.5008H22.249V6.61816H24.537V12.7782L27.881 9.61016H30.609L27.3237 12.9542L30.9024 17.5008H28.1304L25.637 14.4062Z" fill="white"/>
<path d="M17.8373 9.61001H20.1253V17.5007H17.8373V9.61001ZM18.9813 8.51001C18.5608 8.51001 18.2186 8.38779 17.9546 8.14334C17.6906 7.8989 17.5586 7.59579 17.5586 7.23401C17.5586 6.87223 17.6906 6.56912 17.9546 6.32468C18.2186 6.08023 18.5608 5.95801 18.9813 5.95801C19.4017 5.95801 19.7439 6.07534 20.0079 6.31001C20.2719 6.54468 20.4039 6.83801 20.4039 7.19001C20.4039 7.57134 20.2719 7.88912 20.0079 8.14334C19.7439 8.38779 19.4017 8.51001 18.9813 8.51001Z" fill="white"/>
<path d="M9.14746 7.23438H11.5235V15.565H16.6715V17.501H9.14746V7.23438Z" fill="white"/>
</svg>
